<?xml version="1.0" encoding="UTF-8" standalone="no"?>
<!-- Created with Inkscape (http://www.inkscape.org/) -->

<svg
   width="7in"
   height="2in"
   viewBox="0 0 177.80001 50.800001"
   version="1.1"
   id="svg3442"
   inkscape:version="1.2-beta (1b65182ce9, 2022-04-05)"
   sodipodi:docname="Symbols_RotarySwitch.svg"
   xmlns:inkscape="http://www.inkscape.org/namespaces/inkscape"
   xmlns:sodipodi="http://sodipodi.sourceforge.net/DTD/sodipodi-0.dtd"
   xmlns="http://www.w3.org/2000/svg"
   xmlns:svg="http://www.w3.org/2000/svg">
  <sodipodi:namedview
     id="namedview3444"
     pagecolor="#ffffff"
     bordercolor="#666666"
     borderopacity="1.0"
     inkscape:pageshadow="2"
     inkscape:pageopacity="0.0"
     inkscape:pagecheckerboard="0"
     inkscape:document-units="mm"
     showgrid="false"
     units="in"
     inkscape:snap-bbox="true"
     inkscape:bbox-paths="true"
     inkscape:bbox-nodes="true"
     inkscape:snap-bbox-edge-midpoints="true"
     inkscape:snap-bbox-midpoints="true"
     inkscape:object-paths="true"
     inkscape:snap-intersection-paths="true"
     inkscape:snap-smooth-nodes="true"
     inkscape:snap-midpoints="true"
     inkscape:snap-object-midpoints="true"
     inkscape:snap-center="true"
     inkscape:snap-text-baseline="true"
     inkscape:snap-page="true"
     showguides="true"
     inkscape:guide-bbox="true"
     inkscape:zoom="8.2848155"
     inkscape:cx="200.24586"
     inkscape:cy="126.37578"
     inkscape:window-width="2560"
     inkscape:window-height="1017"
     inkscape:window-x="-8"
     inkscape:window-y="-8"
     inkscape:window-maximized="1"
     inkscape:current-layer="layer1"
     inkscape:deskcolor="#d1d1d1">
    <sodipodi:guide
       position="88.900005,50.800002"
       orientation="1,0"
       id="guide3781" />
    <sodipodi:guide
       position="83.900006,5.0000009"
       orientation="0,-1"
       id="guide4372" />
    <sodipodi:guide
       position="5.0000003,45.800001"
       orientation="0,-1"
       id="guide4374" />
    <sodipodi:guide
       position="5.0000003,48.300001"
       orientation="1,0"
       id="guide4376" />
    <sodipodi:guide
       position="172.80001,5.0000008"
       orientation="1,0"
       id="guide4378" />
    <sodipodi:guide
       position="83.900006,5.0000008"
       orientation="1,0"
       id="guide4620" />
    <sodipodi:guide
       position="93.900007,5.0000008"
       orientation="1,0"
       id="guide4622" />
  </sodipodi:namedview>
  <defs
     id="defs3439">
    <marker
       style="overflow:visible"
       id="marker21118"
       refX="0"
       refY="0"
       orient="auto-start-reverse"
       inkscape:stockid="TriangleStart"
       markerWidth="5.3244081"
       markerHeight="6.155385"
       viewBox="0 0 5.3244081 6.1553851"
       inkscape:isstock="true"
       inkscape:collect="always"
       preserveAspectRatio="xMidYMid">
      <path
         transform="scale(0.5)"
         style="fill:context-stroke;fill-rule:evenodd;stroke:context-stroke;stroke-width:1pt"
         d="M 5.77,0 -2.88,5 V -5 Z"
         id="path21116" />
    </marker>
  </defs>
  <g
     inkscape:label="Layer 1"
     inkscape:groupmode="layer"
     id="layer1">
    <text
       xml:space="preserve"
       style="font-size:5.64444px;line-height:1.25;font-family:sans-serif;-inkscape-font-specification:'sans-serif, Normal';font-variant-ligatures:none;text-align:center;text-anchor:middle;stroke-width:0.264583"
       x="11.370666"
       y="60.380119"
       id="theme"><tspan
         sodipodi:role="line"
         id="tspan6918"
         style="stroke-width:0.264583"
         x="11.370666"
         y="60.380119">Electronics</tspan></text>
    <text
       xml:space="preserve"
       style="font-size:5.64444px;line-height:1.25;font-family:sans-serif;-inkscape-font-specification:'sans-serif, Normal';font-variant-ligatures:none;text-align:center;text-anchor:middle;stroke-width:0.264583"
       x="44.379448"
       y="15.402285"
       id="text1162"><tspan
         sodipodi:role="line"
         id="tspan1160"
         x="44.379448"
         y="15.402285"
         style="font-size:5.64444px;stroke-width:0.264583">What is this</tspan><tspan
         sodipodi:role="line"
         x="44.379448"
         y="22.457836"
         style="font-size:5.64444px;stroke-width:0.264583"
         id="tspan1164">schematic symbol?</tspan></text>
    <text
       xml:space="preserve"
       style="font-size:5.64444px;line-height:1.25;font-family:sans-serif;-inkscape-font-specification:'sans-serif, Normal';font-variant-ligatures:none;text-align:center;text-anchor:middle;stroke-width:0.264583"
       x="133.11858"
       y="27.451754"
       id="text1162-4"><tspan
         sodipodi:role="line"
         x="133.11858"
         y="27.451754"
         style="font-size:5.64444px;stroke-width:0.264583"
         id="tspan1164-3">Rotary Switch</tspan></text>
    <path
       id="rect21397-6"
       style="fill:#e8e8e8;stroke-width:0.264999;stop-color:#000000"
       d="m 39.652035,27.60927 h 9.87401 c 1.662,0 3,1.338 3,3 v 9.87401 c 0,1.662 -1.338,3 -3,3 h -9.87401 c -1.662,0 -3,-1.338 -3,-3 v -9.87401 c 0,-1.662 1.338,-3 3,-3 z" />
    <path
       style="fill:none;fill-opacity:1;stroke:#000000;stroke-width:0.265;stroke-dasharray:none;stroke-opacity:1;stop-color:#000000"
       d="m 36.652008,35.546289 h 1.31499"
       id="path21490-0" />
    <path
       id="circle47792"
       style="fill:none;stroke:#000000;stroke-width:0.264999;stop-color:#000000"
       d="m 39.906551,31.789875 a 0.65481037,0.65481037 0 0 0 0.926042,-10e-7 0.65481037,0.65481037 0 0 0 0,-0.926041 0.65481037,0.65481037 0 0 0 -0.926042,0 0.65481037,0.65481037 0 0 0 0,0.926042 z" />
    <path
       id="circle21496-8"
       style="fill:none;stroke:#000000;stroke-width:0.264999;stop-color:#000000"
       d="m 43.934221,29.579134 a 0.65481037,0.65481037 0 0 0 0.65481,0.65481 0.65481037,0.65481037 0 0 0 0.654811,-0.65481 0.65481037,0.65481037 0 0 0 -0.654811,-0.65481 0.65481037,0.65481037 0 0 0 -0.65481,0.65481 z" />
    <path
       id="circle21496-8-9"
       style="fill:none;stroke:#000000;stroke-width:0.264999;stop-color:#000000"
       d="m 43.934236,35.546272 a 0.65481037,0.65481037 0 0 0 0.65481,0.654811 0.65481037,0.65481037 0 0 0 0.654811,-0.654811 0.65481037,0.65481037 0 0 0 -0.654811,-0.65481 0.65481037,0.65481037 0 0 0 -0.65481,0.65481 z" />
    <path
       id="circle43614"
       style="fill:none;stroke:#000000;stroke-width:0.264999;stop-color:#000000"
       d="m 48.345415,30.863855 a 0.65481037,0.65481037 0 0 0 10e-7,0.926042 0.65481037,0.65481037 0 0 0 0.926041,0 0.65481037,0.65481037 0 0 0 0,-0.926042 0.65481037,0.65481037 0 0 0 -0.926042,0 z" />
    <path
       id="circle44380"
       style="fill:none;stroke:#000000;stroke-width:0.264999;stop-color:#000000"
       d="m 50.55621,34.8915 a 0.65481037,0.65481037 0 0 0 -0.654811,0.65481 0.65481037,0.65481037 0 0 0 0.654811,0.654811 0.65481037,0.65481037 0 0 0 0.65481,-0.654811 0.65481037,0.65481037 0 0 0 -0.65481,-0.65481 z" />
    <path
       id="circle45527"
       style="fill:none;stroke:#000000;stroke-width:0.264999;stop-color:#000000"
       d="m 49.271442,39.302719 a 0.65481037,0.65481037 0 0 0 -0.926043,0 0.65481037,0.65481037 0 0 0 10e-7,0.926042 0.65481037,0.65481037 0 0 0 0.926041,0 0.65481037,0.65481037 0 0 0 10e-7,-0.926042 z" />
    <path
       id="circle45912"
       style="fill:none;stroke:#000000;stroke-width:0.264999;stop-color:#000000"
       d="m 40.832571,40.22874 a 0.65481037,0.65481037 0 0 0 0,-0.926042 0.65481037,0.65481037 0 0 0 -0.926042,0 0.65481037,0.65481037 0 0 0 0,0.926042 0.65481037,0.65481037 0 0 0 0.926042,0 z" />
    <path
       id="circle47026"
       style="fill:none;stroke:#000000;stroke-width:0.264999;stop-color:#000000"
       d="m 38.621853,36.20109 a 0.65481037,0.65481037 0 0 0 0.65481,-0.65481 0.65481037,0.65481037 0 0 0 -0.65481,-0.65481 0.65481037,0.65481037 0 0 0 -0.65481,0.65481 0.65481037,0.65481037 0 0 0 0.65481,0.65481 z" />
    <path
       id="circle48558"
       style="fill:none;stroke:#000000;stroke-width:0.264999;stop-color:#000000"
       d="m 45.243842,41.513462 a 0.65481037,0.65481037 0 0 0 -0.654811,-0.65481 0.65481037,0.65481037 0 0 0 -0.65481,0.65481 0.65481037,0.65481037 0 0 0 0.65481,0.65481 0.65481037,0.65481037 0 0 0 0.654811,-0.65481 z" />
    <path
       style="fill:none;stroke:#000000;stroke-width:0.264583px;stroke-linecap:butt;stroke-linejoin:miter;stroke-opacity:1;marker-end:url(#marker21118)"
       d="m 45.243808,35.546269 h 2.41118"
       id="path49387" />
  </g>
</svg>
