<?xml version="1.0" encoding="UTF-8" standalone="no"?>
<!-- Created with Inkscape (http://www.inkscape.org/) -->

<svg
   width="7in"
   height="2in"
   viewBox="0 0 177.80001 50.800001"
   version="1.1"
   id="svg3442"
   inkscape:version="1.2-beta (1b65182ce9, 2022-04-05)"
   sodipodi:docname="compdata_float_bits_16_fraction.svg"
   xmlns:inkscape="http://www.inkscape.org/namespaces/inkscape"
   xmlns:sodipodi="http://sodipodi.sourceforge.net/DTD/sodipodi-0.dtd"
   xmlns="http://www.w3.org/2000/svg"
   xmlns:svg="http://www.w3.org/2000/svg">
  <sodipodi:namedview
     id="namedview3444"
     pagecolor="#ffffff"
     bordercolor="#666666"
     borderopacity="1.0"
     inkscape:pageshadow="2"
     inkscape:pageopacity="0.0"
     inkscape:pagecheckerboard="0"
     inkscape:document-units="mm"
     showgrid="false"
     units="in"
     inkscape:snap-bbox="true"
     inkscape:bbox-paths="true"
     inkscape:bbox-nodes="true"
     inkscape:snap-bbox-edge-midpoints="true"
     inkscape:snap-bbox-midpoints="true"
     inkscape:object-paths="true"
     inkscape:snap-intersection-paths="true"
     inkscape:snap-smooth-nodes="true"
     inkscape:snap-midpoints="true"
     inkscape:snap-object-midpoints="true"
     inkscape:snap-center="true"
     inkscape:snap-text-baseline="true"
     inkscape:snap-page="true"
     showguides="true"
     inkscape:guide-bbox="true"
     inkscape:zoom="1.4645623"
     inkscape:cx="364.95545"
     inkscape:cy="196.98718"
     inkscape:window-width="2560"
     inkscape:window-height="1017"
     inkscape:window-x="2552"
     inkscape:window-y="-8"
     inkscape:window-maximized="1"
     inkscape:current-layer="layer1"
     inkscape:snap-global="true"
     inkscape:deskcolor="#d1d1d1">
    <sodipodi:guide
       position="88.900005,50.800002"
       orientation="1,0"
       id="guide3781" />
    <sodipodi:guide
       position="83.900006,5.0000009"
       orientation="0,-1"
       id="guide4372" />
    <sodipodi:guide
       position="5.0000003,45.800001"
       orientation="0,-1"
       id="guide4374" />
    <sodipodi:guide
       position="5.0000003,48.300001"
       orientation="1,0"
       id="guide4376" />
    <sodipodi:guide
       position="172.80001,5.0000008"
       orientation="1,0"
       id="guide4378" />
    <sodipodi:guide
       position="83.900006,5.0000008"
       orientation="1,0"
       id="guide4620" />
    <sodipodi:guide
       position="93.900007,5.0000008"
       orientation="1,0"
       id="guide4622" />
  </sodipodi:namedview>
  <defs
     id="defs3439" />
  <g
     inkscape:label="Layer 1"
     inkscape:groupmode="layer"
     id="layer1">
    <text
       xml:space="preserve"
       style="font-size:5.64444px;line-height:1.25;font-family:sans-serif;-inkscape-font-specification:'sans-serif, Normal';font-variant-ligatures:none;text-align:start;text-anchor:start;stroke-width:0.264583"
       x="4.6830516"
       y="60.380119"
       id="theme"><tspan
         sodipodi:role="line"
         id="tspan6918"
         style="text-align:start;text-anchor:start;stroke-width:0.264583"
         x="4.6830516"
         y="60.380119">CompData</tspan></text>
    <text
       xml:space="preserve"
       style="font-size:5.64444px;line-height:1.25;font-family:sans-serif;-inkscape-font-specification:'sans-serif, Normal';font-variant-ligatures:none;text-align:center;text-anchor:middle;stroke-width:0.264583"
       x="25.88278"
       y="11.760651"
       id="text2240-1"><tspan
         sodipodi:role="line"
         style="stroke-width:0.264583"
         x="25.88278"
         y="11.760651"
         id="tspan966">For IEEE-754,</tspan></text>
    <text
       xml:space="preserve"
       style="font-size:5.64444px;line-height:1.25;font-family:sans-serif;-inkscape-font-specification:'sans-serif, Normal';font-variant-ligatures:none;text-align:center;text-anchor:middle;stroke-width:0.264583"
       x="44.33149"
       y="15.491913"
       id="text2240-1-8"><tspan
         sodipodi:role="line"
         style="stroke-width:0.264583"
         x="44.33149"
         y="15.491913"
         id="tspan966-5" /><tspan
         sodipodi:role="line"
         style="stroke-width:0.264583"
         x="44.33149"
         y="22.547462"
         id="tspan3289">how many <tspan
   style="font-weight:bold"
   id="tspan2339">significand</tspan> bits</tspan><tspan
         sodipodi:role="line"
         style="stroke-width:0.264583"
         x="44.33149"
         y="29.603014"
         id="tspan3291">are in a</tspan><tspan
         sodipodi:role="line"
         style="stroke-width:0.264583"
         x="44.33149"
         y="36.658562"
         id="tspan3293"><tspan
   style="font-weight:bold"
   id="tspan1253">half</tspan> precision float?</tspan></text>
    <text
       xml:space="preserve"
       style="font-size:5.64444px;line-height:1.25;font-family:sans-serif;-inkscape-font-specification:'sans-serif, Normal';font-variant-ligatures:none;text-align:center;text-anchor:middle;stroke-width:0.264583"
       x="133.35139"
       y="18.458822"
       id="text2240"><tspan
         sodipodi:role="line"
         style="font-style:normal;font-variant:normal;font-weight:normal;font-stretch:normal;font-family:serif;-inkscape-font-specification:serif;stroke-width:0.264583"
         x="133.35139"
         y="18.458822"
         id="tspan7631">10</tspan></text>
    <rect
       style="fill:#939393;fill-opacity:1;stroke:#808080;stroke-width:0.264999;stroke-opacity:1;stop-color:#000000"
       id="rect863"
       width="2.5548747"
       height="5.1097493"
       x="112.33121"
       y="40.69025" />
    <rect
       style="fill:#cbcbcb;fill-opacity:1;stroke:#808080;stroke-width:0.264999;stroke-opacity:1;stop-color:#000000"
       id="rect863-0"
       width="2.5548747"
       height="5.1097493"
       x="115.9444"
       y="40.69025" />
    <rect
       style="fill:#cbcbcb;fill-opacity:1;stroke:#808080;stroke-width:0.264999;stroke-opacity:1;stop-color:#000000"
       id="rect863-7"
       width="2.5548747"
       height="5.1097493"
       x="118.49932"
       y="40.69025" />
    <rect
       style="fill:#cbcbcb;fill-opacity:1;stroke:#808080;stroke-width:0.264999;stroke-opacity:1;stop-color:#000000"
       id="rect863-9"
       width="2.5548747"
       height="5.1097493"
       x="121.05421"
       y="40.69025" />
    <rect
       style="fill:#cbcbcb;fill-opacity:1;stroke:#808080;stroke-width:0.264999;stroke-opacity:1;stop-color:#000000"
       id="rect863-8"
       width="2.5548747"
       height="5.1097493"
       x="123.60905"
       y="40.69025" />
    <rect
       style="fill:#cbcbcb;fill-opacity:1;stroke:#808080;stroke-width:0.264999;stroke-opacity:1;stop-color:#000000"
       id="rect863-8-8"
       width="2.5548747"
       height="5.1097493"
       x="126.16394"
       y="40.69025" />
    <rect
       style="fill:#939393;fill-opacity:1;stroke:#808080;stroke-width:0.264999;stroke-opacity:1;stop-color:#000000"
       id="rect863-0-3"
       width="2.5548747"
       height="5.1097493"
       x="129.77716"
       y="40.69025" />
    <rect
       style="fill:#939393;fill-opacity:1;stroke:#808080;stroke-width:0.264999;stroke-opacity:1;stop-color:#000000"
       id="rect863-7-0"
       width="2.5548747"
       height="5.1097493"
       x="132.33205"
       y="40.69025" />
    <rect
       style="fill:#939393;fill-opacity:1;stroke:#808080;stroke-width:0.264999;stroke-opacity:1;stop-color:#000000"
       id="rect863-9-4"
       width="2.5548747"
       height="5.1097493"
       x="134.88696"
       y="40.69025" />
    <rect
       style="fill:#939393;fill-opacity:1;stroke:#808080;stroke-width:0.264999;stroke-opacity:1;stop-color:#000000"
       id="rect863-8-3"
       width="2.5548747"
       height="5.1097493"
       x="137.44182"
       y="40.69025" />
    <rect
       style="fill:#939393;fill-opacity:1;stroke:#808080;stroke-width:0.264999;stroke-opacity:1;stop-color:#000000"
       id="rect863-8-8-2"
       width="2.5548747"
       height="5.1097493"
       x="139.99669"
       y="40.69025" />
    <rect
       style="fill:#939393;fill-opacity:1;stroke:#808080;stroke-width:0.264999;stroke-opacity:1;stop-color:#000000"
       id="rect863-0-3-5"
       width="2.5548747"
       height="5.1097493"
       x="142.55156"
       y="40.69025" />
    <rect
       style="fill:#939393;fill-opacity:1;stroke:#808080;stroke-width:0.264999;stroke-opacity:1;stop-color:#000000"
       id="rect863-7-0-5"
       width="2.5548747"
       height="5.1097493"
       x="145.10645"
       y="40.69025" />
    <rect
       style="fill:#939393;fill-opacity:1;stroke:#808080;stroke-width:0.264999;stroke-opacity:1;stop-color:#000000"
       id="rect863-9-4-3"
       width="2.5548747"
       height="5.1097493"
       x="147.66133"
       y="40.69025" />
    <rect
       style="fill:#939393;fill-opacity:1;stroke:#808080;stroke-width:0.264999;stroke-opacity:1;stop-color:#000000"
       id="rect863-8-3-4"
       width="2.5548747"
       height="5.1097493"
       x="150.2162"
       y="40.69025" />
    <rect
       style="fill:#939393;fill-opacity:1;stroke:#808080;stroke-width:0.264999;stroke-opacity:1;stop-color:#000000"
       id="rect863-8-8-2-4"
       width="2.5548747"
       height="5.1097493"
       x="152.77107"
       y="40.69025" />
    <path
       d="m 113.1752,38.983329 q 0.0322,0.03224 0.0469,0.0688 0.0146,0.03656 0.0158,0.07552 6.4e-4,0.0384 -0.0103,0.07737 -0.011,0.03897 -0.0305,0.07671 -0.0189,0.03714 -0.0444,0.07129 -0.0256,0.03408 -0.0542,0.06271 -0.0621,0.06212 -0.12015,0.108838 -0.0574,0.04611 -0.11938,0.08403 l -0.0974,-0.09745 q 0.0688,-0.03839 0.1297,-0.08345 0.0609,-0.04506 0.11328,-0.09744 0.0761,-0.07613 0.0919,-0.133386 0.0158,-0.05726 -0.0226,-0.09566 -0.0164,-0.0164 -0.0353,-0.02312 -0.019,-0.0079 -0.0457,-0.0043 -0.0274,0.0031 -0.0725,0.02254 -0.0445,0.01887 -0.1163,0.05788 -0.0536,0.02925 -0.10417,0.0493 -0.0506,0.01887 -0.0974,0.02317 -0.0469,0.0043 -0.0901,-0.0097 -0.0433,-0.01402 -0.0822,-0.05298 -0.0256,-0.0256 -0.0444,-0.06758 -0.0183,-0.04265 -0.0158,-0.09744 0.002,-0.05479 0.0341,-0.120549 0.031,-0.0664 0.10412,-0.13948 0.0359,-0.03593 0.084,-0.07554 0.0474,-0.04031 0.10471,-0.07799 l 0.0944,0.0944 q -0.0621,0.03777 -0.11268,0.07733 -0.0508,0.03809 -0.0837,0.07098 -0.0396,0.03958 -0.0606,0.07336 -0.0204,0.03316 -0.0268,0.06089 -0.006,0.02683 10e-4,0.04871 0.007,0.02131 0.0232,0.03779 0.0165,0.01648 0.0359,0.02376 0.0201,0.0066 0.0499,0.0024 0.0298,-0.0055 0.0737,-0.02376 0.0432,-0.0189 0.10779,-0.0542 0.07,-0.03836 0.12487,-0.05783 0.0542,-0.02011 0.0987,-0.0219 0.0444,-0.0019 0.081,0.0152 0.0372,0.01645 0.0712,0.05053 z"
       style="font-size:1.76389px;line-height:1.25;font-family:Consolas;-inkscape-font-specification:Consolas;font-variant-ligatures:none;text-align:start;text-anchor:start;fill-opacity:0.75;stroke-width:0.264583;fill:#000000"
       id="path44759" />
    <path
       d="m 113.22819,38.216586 -0.18087,0.180877 -0.0877,-0.0877 0.28807,-0.288064 0.52314,0.523146 0.1821,-0.182095 0.0883,0.0883 -0.49025,0.490255 -0.0883,-0.0883 0.20098,-0.200975 z m -0.30694,-0.381244 q 0.0177,-0.01766 0.0392,-0.02652 0.0216,-0.0089 0.0439,-0.0085 0.0232,2.8e-5 0.0445,0.0091 0.0213,0.0079 0.039,0.02553 0.017,0.01704 0.0256,0.03903 0.009,0.02128 0.009,0.04446 6.4e-4,0.02256 -0.008,0.04443 -0.009,0.02159 -0.0265,0.03925 -0.0177,0.01766 -0.0392,0.02652 -0.0216,0.0089 -0.0451,0.0086 -0.0225,-6.36e-4 -0.0445,-0.0091 -0.0213,-0.0091 -0.0384,-0.02623 -0.0177,-0.01768 -0.0262,-0.03833 -0.008,-0.02192 -0.009,-0.04446 -3e-5,-0.02317 0.009,-0.04448 0.009,-0.02159 0.0265,-0.03925 z"
       style="font-size:1.76389px;line-height:1.25;font-family:Consolas;-inkscape-font-specification:Consolas;font-variant-ligatures:none;text-align:start;text-anchor:start;fill-opacity:0.75;stroke-width:0.264583;fill:#000000"
       id="path44761" />
    <path
       d="m 114.14475,37.29758 q 0.0384,0.0043 0.0761,0.02374 0.0377,0.01826 0.0706,0.05114 0.0475,0.04752 0.0694,0.104751 0.0219,0.05602 0.0182,0.115682 -0.004,0.05967 -0.0323,0.119968 -0.0286,0.05905 -0.0816,0.112036 -0.0384,0.03837 -0.0798,0.06394 -0.0421,0.02494 -0.0737,0.03226 0.005,0.02861 0.0128,0.0518 0.007,0.02312 0.0262,0.042 0.0231,0.02312 0.0603,0.01647 0.0377,-0.0073 0.0755,-0.0426 l 0.16714,-0.154415 q 0.0471,-0.04427 0.0956,-0.07245 0.0494,-0.02858 0.0962,-0.03654 0.0475,-0.0085 0.0913,0.0048 0.0445,0.01281 0.0822,0.05056 0.0408,0.0408 0.0597,0.09501 0.0189,0.05422 0.009,0.118731 -0.009,0.06454 -0.0487,0.137656 -0.0402,0.07312 -0.11812,0.151067 -0.0743,0.0743 -0.13883,0.114513 -0.0634,0.04017 -0.11814,0.05238 -0.0542,0.01278 -0.0986,-0.0012 -0.0439,-0.01341 -0.0786,-0.04813 -0.0445,-0.04448 -0.0572,-0.09866 -0.0128,-0.05422 -6.2e-4,-0.128502 -0.0231,0.0085 -0.0456,0.0092 -0.0225,6.15e-4 -0.0426,-0.0049 -0.0207,-0.0061 -0.039,-0.01704 -0.0183,-0.01096 -0.0323,-0.02496 -0.0396,-0.0396 -0.0542,-0.09074 -0.014,-0.05176 -0.0177,-0.106611 -0.0256,-0.0024 -0.0481,-0.0067 -0.0219,-0.0048 -0.0439,-0.01341 -0.0219,-0.0098 -0.0433,-0.02377 -0.0213,-0.0152 -0.0445,-0.0384 -0.0475,-0.04752 -0.0694,-0.103535 -0.0219,-0.05726 -0.0189,-0.116319 0.004,-0.05967 0.0323,-0.118721 0.0286,-0.06029 0.0822,-0.113891 0.0225,-0.02254 0.0461,-0.04041 0.0235,-0.01788 0.0445,-0.02862 l 0.22168,-0.22168 0.0865,0.08648 z m 0.24544,0.981124 q 0.0432,0.04321 0.10778,0.01766 0.0652,-0.02498 0.14554,-0.105375 0.0505,-0.05055 0.0755,-0.09378 0.0256,-0.04383 0.0311,-0.07975 0.007,-0.03596 -0.004,-0.06453 -0.01,-0.02802 -0.0298,-0.0481 -0.0371,-0.03712 -0.0853,-0.02435 -0.0481,0.01277 -0.11389,0.07246 l -0.16522,0.153905 q -0.007,0.03353 -0.007,0.05966 1e-5,0.02559 0.006,0.04569 0.006,0.02068 0.0158,0.03651 0.0103,0.01641 0.0238,0.02984 z m -0.46772,-0.532281 q 0.0292,0.0292 0.0633,0.04386 0.0341,0.01465 0.0688,0.01403 0.0347,-6.23e-4 0.0682,-0.01462 0.0335,-0.01524 0.0627,-0.04447 0.0317,-0.03167 0.0456,-0.06643 0.014,-0.03593 0.0122,-0.07062 -10e-4,-0.0353 -0.0164,-0.06758 -0.0146,-0.03289 -0.0402,-0.05849 -0.0292,-0.0292 -0.0633,-0.04386 -0.0341,-0.01465 -0.0688,-0.01403 -0.0347,6.23e-4 -0.0682,0.01586 -0.0335,0.01399 -0.0627,0.04322 -0.0317,0.03167 -0.0457,0.0676 -0.0134,0.03532 -0.0122,0.07062 0.001,0.03412 0.0159,0.06701 0.0152,0.03229 0.0408,0.05788 z"
       style="font-size:1.76389px;line-height:1.25;font-family:Consolas;-inkscape-font-specification:Consolas;font-variant-ligatures:none;text-align:start;text-anchor:start;fill-opacity:0.75;stroke-width:0.264583;fill:#000000"
       id="path44763" />
    <path
       d="m 114.30371,36.965669 0.0944,-0.0944 0.10291,0.09442 q -0.005,-0.05848 -6.3e-4,-0.104164 0.004,-0.04625 0.0146,-0.0828 0.0116,-0.03716 0.0316,-0.06701 0.0193,-0.03062 0.0461,-0.05742 0.0944,-0.0944 0.19851,-0.08651 0.10415,0.0067 0.21619,0.118759 l 0.39891,0.3989 -0.10597,0.105968 -0.39038,-0.390373 q -0.0719,-0.07186 -0.13277,-0.07917 -0.0615,-0.0079 -0.1145,0.04506 -0.0195,0.01949 -0.032,0.04473 -0.0126,0.02393 -0.0183,0.05845 -0.006,0.0341 -0.005,0.08224 10e-4,0.04754 0.009,0.113258 l 0.4056,0.405603 -0.10594,0.105944 z"
       style="font-size:1.76389px;line-height:1.25;font-family:Consolas;-inkscape-font-specification:Consolas;font-variant-ligatures:none;text-align:start;text-anchor:start;fill-opacity:0.75;stroke-width:0.264583;fill:#000000"
       id="path44765" />
    <text
       xml:space="preserve"
       style="font-size:3.52778px;line-height:1.25;font-family:sans-serif;-inkscape-font-specification:'sans-serif, Normal';font-variant-ligatures:none;text-align:center;text-anchor:middle;fill:#000000;fill-opacity:0.5;stroke-width:0.264583"
       x="119.73466"
       y="28.258854"
       id="text4422"><tspan
         sodipodi:role="line"
         id="tspan4420"
         style="font-size:3.52778px;fill:#000000;fill-opacity:0.5;stroke-width:0.264583"
         x="119.73466"
         y="28.258854">Diagram</tspan></text>
    <text
       xml:space="preserve"
       style="font-size:2.11667px;line-height:1.25;font-family:sans-serif;-inkscape-font-specification:'sans-serif, Normal';font-variant-ligatures:none;text-align:center;text-anchor:middle;fill:#000000;fill-opacity:0.5;stroke-width:0.264583"
       x="120.60181"
       y="30.600832"
       id="text4422-8"><tspan
         sodipodi:role="line"
         id="tspan4420-1"
         style="font-size:2.11667px;fill:#000000;fill-opacity:0.5;stroke-width:0.264583"
         x="120.60181"
         y="30.600832">Bit layout for a half precision float.</tspan></text>
    <text
       xml:space="preserve"
       style="font-size:1.76389px;line-height:1.25;font-family:sans-serif;-inkscape-font-specification:'sans-serif, Normal';font-variant-ligatures:none;text-align:center;text-anchor:middle;fill:#000000;fill-opacity:0.75;stroke-width:0.264583"
       x="154.04893"
       y="43.887207"
       id="text8560"><tspan
         sodipodi:role="line"
         id="tspan8558"
         style="font-size:1.76389px;fill:#000000;fill-opacity:0.75;stroke-width:0.264583"
         x="154.04893"
         y="43.887207">0</tspan></text>
    <text
       xml:space="preserve"
       style="font-size:1.76389px;line-height:1.25;font-family:sans-serif;-inkscape-font-specification:'sans-serif, Normal';font-variant-ligatures:none;text-align:center;text-anchor:middle;fill:#000000;fill-opacity:0.5;stroke-width:0.264583"
       x="158.24051"
       y="45.775021"
       id="text8560-14"><tspan
         sodipodi:role="line"
         id="tspan8558-81"
         style="font-size:1.76389px;fill:#000000;fill-opacity:0.5;stroke-width:0.264583"
         x="158.24051"
         y="45.775021">LSB</tspan></text>
    <text
       xml:space="preserve"
       style="font-size:1.76389px;line-height:1.25;font-family:sans-serif;-inkscape-font-specification:'sans-serif, Normal';font-variant-ligatures:none;text-align:center;text-anchor:middle;fill:#000000;fill-opacity:0.5;stroke-width:0.264583"
       x="108.85923"
       y="45.799999"
       id="text8560-14-0"><tspan
         sodipodi:role="line"
         id="tspan8558-81-2"
         style="font-size:1.76389px;fill:#000000;fill-opacity:0.5;stroke-width:0.264583"
         x="108.85923"
         y="45.799999">MSB</tspan></text>
    <text
       xml:space="preserve"
       style="font-size:1.76389px;line-height:1.25;font-family:sans-serif;-inkscape-font-specification:'sans-serif, Normal';font-variant-ligatures:none;text-align:center;text-anchor:middle;fill:#000000;fill-opacity:0.75;stroke-width:0.264583"
       x="151.49406"
       y="43.887203"
       id="text8560-8"><tspan
         sodipodi:role="line"
         id="tspan8558-6"
         style="font-size:1.76389px;fill:#000000;fill-opacity:0.75;stroke-width:0.264583"
         x="151.49406"
         y="43.887203">1</tspan></text>
    <text
       xml:space="preserve"
       style="font-size:1.76389px;line-height:1.25;font-family:sans-serif;-inkscape-font-specification:'sans-serif, Normal';font-variant-ligatures:none;text-align:center;text-anchor:middle;fill:#000000;fill-opacity:0.75;stroke-width:0.264583"
       x="148.93919"
       y="43.887207"
       id="text8560-3"><tspan
         sodipodi:role="line"
         id="tspan8558-3"
         style="font-size:1.76389px;fill:#000000;fill-opacity:0.75;stroke-width:0.264583"
         x="148.93919"
         y="43.887207">2</tspan></text>
    <text
       xml:space="preserve"
       style="font-size:1.76389px;line-height:1.25;font-family:sans-serif;-inkscape-font-specification:'sans-serif, Normal';font-variant-ligatures:none;text-align:center;text-anchor:middle;fill:#000000;fill-opacity:0.75;stroke-width:0.264583"
       x="146.38431"
       y="43.887203"
       id="text8560-6"><tspan
         sodipodi:role="line"
         id="tspan8558-8"
         style="font-size:1.76389px;fill:#000000;fill-opacity:0.75;stroke-width:0.264583"
         x="146.38431"
         y="43.887203">3</tspan></text>
    <text
       xml:space="preserve"
       style="font-size:1.76389px;line-height:1.25;font-family:sans-serif;-inkscape-font-specification:'sans-serif, Normal';font-variant-ligatures:none;text-align:center;text-anchor:middle;fill:#000000;fill-opacity:0.75;stroke-width:0.264583"
       x="143.82942"
       y="43.887207"
       id="text8560-89"><tspan
         sodipodi:role="line"
         id="tspan8558-5"
         style="font-size:1.76389px;fill:#000000;fill-opacity:0.75;stroke-width:0.264583"
         x="143.82942"
         y="43.887207">4</tspan></text>
    <text
       xml:space="preserve"
       style="font-size:1.76389px;line-height:1.25;font-family:sans-serif;-inkscape-font-specification:'sans-serif, Normal';font-variant-ligatures:none;text-align:center;text-anchor:middle;fill:#000000;fill-opacity:0.75;stroke-width:0.264583"
       x="141.27455"
       y="43.887203"
       id="text8560-32"><tspan
         sodipodi:role="line"
         id="tspan8558-69"
         style="font-size:1.76389px;fill:#000000;fill-opacity:0.75;stroke-width:0.264583"
         x="141.27455"
         y="43.887203">5</tspan></text>
    <text
       xml:space="preserve"
       style="font-size:1.76389px;line-height:1.25;font-family:sans-serif;-inkscape-font-specification:'sans-serif, Normal';font-variant-ligatures:none;text-align:center;text-anchor:middle;fill:#000000;fill-opacity:0.75;stroke-width:0.264583"
       x="138.71968"
       y="43.887207"
       id="text8560-1"><tspan
         sodipodi:role="line"
         id="tspan8558-0"
         style="font-size:1.76389px;fill:#000000;fill-opacity:0.75;stroke-width:0.264583"
         x="138.71968"
         y="43.887207">6</tspan></text>
    <text
       xml:space="preserve"
       style="font-size:1.76389px;line-height:1.25;font-family:sans-serif;-inkscape-font-specification:'sans-serif, Normal';font-variant-ligatures:none;text-align:center;text-anchor:middle;fill:#000000;fill-opacity:0.75;stroke-width:0.264583"
       x="136.16481"
       y="43.887203"
       id="text8560-2"><tspan
         sodipodi:role="line"
         id="tspan8558-9"
         style="font-size:1.76389px;fill:#000000;fill-opacity:0.75;stroke-width:0.264583"
         x="136.16481"
         y="43.887203">7</tspan></text>
    <text
       xml:space="preserve"
       style="font-size:1.76389px;line-height:1.25;font-family:sans-serif;-inkscape-font-specification:'sans-serif, Normal';font-variant-ligatures:none;text-align:center;text-anchor:middle;fill:#000000;fill-opacity:0.75;stroke-width:0.264583"
       x="133.60991"
       y="43.887203"
       id="text8560-67"><tspan
         sodipodi:role="line"
         id="tspan8558-01"
         style="font-size:1.76389px;fill:#000000;fill-opacity:0.75;stroke-width:0.264583"
         x="133.60991"
         y="43.887203">8</tspan></text>
    <text
       xml:space="preserve"
       style="font-size:1.76389px;line-height:1.25;font-family:sans-serif;-inkscape-font-specification:'sans-serif, Normal';font-variant-ligatures:none;text-align:center;text-anchor:middle;fill:#000000;fill-opacity:0.75;stroke-width:0.264583"
       x="131.05502"
       y="43.887207"
       id="text8560-0"><tspan
         sodipodi:role="line"
         id="tspan8558-1"
         style="font-size:1.76389px;fill:#000000;fill-opacity:0.75;stroke-width:0.264583"
         x="131.05502"
         y="43.887207">9</tspan></text>
    <text
       xml:space="preserve"
       style="font-size:1.76389px;line-height:1.25;font-family:sans-serif;-inkscape-font-specification:'sans-serif, Normal';font-variant-ligatures:none;text-align:center;text-anchor:middle;fill:#000000;fill-opacity:0.75;stroke-width:0.264583"
       x="127.44181"
       y="43.887207"
       id="text8560-4"><tspan
         sodipodi:role="line"
         id="tspan8558-7"
         style="font-size:1.76389px;fill:#000000;fill-opacity:0.75;stroke-width:0.264583"
         x="127.44181"
         y="43.887207">10</tspan></text>
    <text
       xml:space="preserve"
       style="font-size:1.76389px;line-height:1.25;font-family:sans-serif;-inkscape-font-specification:'sans-serif, Normal';font-variant-ligatures:none;text-align:center;text-anchor:middle;fill:#000000;fill-opacity:0.75;stroke-width:0.264583"
       x="124.88692"
       y="43.887207"
       id="text8560-05"><tspan
         sodipodi:role="line"
         id="tspan8558-37"
         style="font-size:1.76389px;fill:#000000;fill-opacity:0.75;stroke-width:0.264583"
         x="124.88692"
         y="43.887207">11</tspan></text>
    <text
       xml:space="preserve"
       style="font-size:1.76389px;line-height:1.25;font-family:sans-serif;-inkscape-font-specification:'sans-serif, Normal';font-variant-ligatures:none;text-align:center;text-anchor:middle;fill:#000000;fill-opacity:0.75;stroke-width:0.264583"
       x="122.33208"
       y="43.887207"
       id="text8560-84"><tspan
         sodipodi:role="line"
         id="tspan8558-95"
         style="font-size:1.76389px;fill:#000000;fill-opacity:0.75;stroke-width:0.264583"
         x="122.33208"
         y="43.887207">12</tspan></text>
    <text
       xml:space="preserve"
       style="font-size:1.76389px;line-height:1.25;font-family:sans-serif;-inkscape-font-specification:'sans-serif, Normal';font-variant-ligatures:none;text-align:center;text-anchor:middle;fill:#000000;fill-opacity:0.75;stroke-width:0.264583"
       x="119.77719"
       y="43.887203"
       id="text8560-47"><tspan
         sodipodi:role="line"
         id="tspan8558-06"
         style="font-size:1.76389px;fill:#000000;fill-opacity:0.75;stroke-width:0.264583"
         x="119.77719"
         y="43.887203">13</tspan></text>
    <text
       xml:space="preserve"
       style="font-size:1.76389px;line-height:1.25;font-family:sans-serif;-inkscape-font-specification:'sans-serif, Normal';font-variant-ligatures:none;text-align:center;text-anchor:middle;fill:#000000;fill-opacity:0.75;stroke-width:0.264583"
       x="117.22227"
       y="43.887207"
       id="text8560-7"><tspan
         sodipodi:role="line"
         id="tspan8558-00"
         style="font-size:1.76389px;fill:#000000;fill-opacity:0.75;stroke-width:0.264583"
         x="117.22227"
         y="43.887207">14</tspan></text>
    <text
       xml:space="preserve"
       style="font-size:1.76389px;line-height:1.25;font-family:sans-serif;-inkscape-font-specification:'sans-serif, Normal';font-variant-ligatures:none;text-align:center;text-anchor:middle;fill:#000000;fill-opacity:0.75;stroke-width:0.264583"
       x="113.60909"
       y="43.887203"
       id="text8560-74"><tspan
         sodipodi:role="line"
         id="tspan8558-32"
         style="font-size:1.76389px;fill:#000000;fill-opacity:0.75;stroke-width:0.264583"
         x="113.60909"
         y="43.887203">15</tspan></text>
    <path
       d="m 120.44467,38.779935 q 0.0226,0.02256 0.0371,0.03837 0.0146,0.01581 0.0268,0.03048 l -0.42935,0.429354 q 0.0938,0.09379 0.19672,0.09197 0.10229,-0.0025 0.20095,-0.101113 0.0268,-0.0268 0.0515,-0.05571 0.0247,-0.02892 0.0454,-0.05813 0.0214,-0.0285 0.0396,-0.05542 0.0182,-0.02809 0.0323,-0.05295 l 0.0871,0.08709 q -0.0311,0.0554 -0.0785,0.117567 -0.0463,0.06212 -0.10475,0.120587 -0.0786,0.07856 -0.15655,0.113846 -0.0779,0.03536 -0.1547,0.03166 -0.0767,-0.0049 -0.15286,-0.04568 -0.0761,-0.04199 -0.15043,-0.116312 -0.0646,-0.06456 -0.10353,-0.140078 -0.039,-0.07672 -0.0469,-0.155295 -0.008,-0.07978 0.0183,-0.157136 0.0262,-0.07736 0.0919,-0.143137 0.0639,-0.06394 0.13336,-0.09319 0.0694,-0.02925 0.1401,-0.02555 0.0707,0.0025 0.14068,0.03837 0.0701,0.03473 0.13521,0.09988 z m -0.12543,0.09503 q -0.039,-0.04264 -0.0822,-0.06638 -0.0438,-0.02434 -0.0889,-0.02803 -0.0444,-0.0042 -0.0883,0.01279 -0.0445,0.01645 -0.0847,0.05665 -0.0347,0.03471 -0.0499,0.07677 -0.0153,0.04199 -0.0116,0.08709 0.004,0.0451 0.025,0.09197 0.0213,0.04687 0.0591,0.09074 z"
       style="font-size:1.76389px;line-height:1.25;font-family:Consolas;-inkscape-font-specification:Consolas;font-variant-ligatures:none;text-align:start;text-anchor:start;fill-opacity:0.75;stroke-width:0.264583;fill:#000000"
       id="path44802" />
    <path
       d="m 121.50313,38.397469 -0.14068,0.140683 -0.3983,-0.06821 0.07,0.396469 -0.13703,0.137027 -0.07,-0.543846 -0.53045,-0.07857 0.13581,-0.13581 0.39586,0.07431 -0.0773,-0.392819 0.13094,-0.130937 0.0773,0.536545 z"
       style="font-size:1.76389px;line-height:1.25;font-family:Consolas;-inkscape-font-specification:Consolas;font-variant-ligatures:none;text-align:start;text-anchor:start;fill-opacity:0.75;stroke-width:0.264583;fill:#000000"
       id="path44804" />
    <path
       d="m 121.84357,37.42366 q 0.0816,0.08161 0.11937,0.165654 0.0383,0.08342 0.0384,0.163822 -3e-5,0.08036 -0.0347,0.155322 -0.0347,0.07489 -0.0987,0.138839 -0.0292,0.02923 -0.0613,0.05564 -0.0315,0.0258 -0.0688,0.04814 l 0.25579,0.255789 -0.10597,0.105969 -0.86115,-0.86115 0.0944,-0.0944 0.10904,0.0956 q -0.017,-0.108399 0.01,-0.185144 0.0262,-0.07737 0.0865,-0.137656 0.0524,-0.05238 0.11388,-0.07004 0.0615,-0.01766 0.12854,-0.0042 0.0664,0.0128 0.13641,0.05603 0.0694,0.0426 0.13886,0.112055 z m -0.10345,0.113354 q -0.0481,-0.04808 -0.0956,-0.081 -0.0469,-0.03345 -0.0907,-0.04687 -0.0439,-0.01341 -0.0834,-0.0055 -0.0402,0.0073 -0.0731,0.04016 -0.0201,0.0201 -0.0344,0.04717 -0.0143,0.02707 -0.022,0.06452 -0.007,0.03656 -0.007,0.08649 3e-5,0.04875 0.009,0.113257 l 0.29659,0.296589 q 0.0414,-0.01707 0.081,-0.042 0.0386,-0.02592 0.0697,-0.05697 0.0859,-0.08587 0.0768,-0.192433 -0.01,-0.107197 -0.12668,-0.224118 z"
       style="font-size:1.76389px;line-height:1.25;font-family:Consolas;-inkscape-font-specification:Consolas;font-variant-ligatures:none;text-align:start;text-anchor:start;fill-opacity:0.75;stroke-width:0.264583;fill:#000000"
       id="path44806" />
    <path
       d="m 122.54515,36.734255 q 0.0713,0.07126 0.11085,0.151038 0.0389,0.07914 0.0438,0.159559 0.004,0.07976 -0.0262,0.157722 -0.0311,0.07732 -0.0999,0.146143 -0.0658,0.06578 -0.13823,0.09807 -0.0725,0.03105 -0.14862,0.02799 -0.0755,-0.0037 -0.15348,-0.04263 -0.0774,-0.0396 -0.15347,-0.115711 -0.0713,-0.07126 -0.10963,-0.149815 -0.0389,-0.07914 -0.0432,-0.15895 -0.005,-0.0804 0.0262,-0.157722 0.0305,-0.07796 0.0993,-0.14678 0.0658,-0.06577 0.13825,-0.09682 0.0725,-0.03229 0.14799,-0.02863 0.0755,0.0024 0.15286,0.04202 0.078,0.03899 0.15347,0.114494 z m -0.10345,0.113354 q -0.0566,-0.05664 -0.11145,-0.08586 -0.0548,-0.03046 -0.10596,-0.03532 -0.0518,-0.0055 -0.0993,0.014 -0.0475,0.01825 -0.0883,0.05905 -0.0475,0.0475 -0.0627,0.100487 -0.0153,0.05174 -0.006,0.104779 0.01,0.05235 0.0408,0.104143 0.0311,0.05054 0.0761,0.09562 0.0566,0.05664 0.11145,0.08709 0.0554,0.02985 0.10719,0.03532 0.0511,0.0049 0.0987,-0.01339 0.0469,-0.01889 0.0883,-0.0603 0.0475,-0.0475 0.0628,-0.09924 0.0152,-0.05298 0.005,-0.105345 -0.009,-0.05297 -0.0402,-0.103535 -0.0311,-0.05179 -0.0767,-0.09745 z"
       style="font-size:1.76389px;line-height:1.25;font-family:Consolas;-inkscape-font-specification:Consolas;font-variant-ligatures:none;text-align:start;text-anchor:start;fill-opacity:0.75;stroke-width:0.264583;fill:#000000"
       id="path44808" />
    <path
       d="m 122.39777,36.279931 0.0944,-0.0944 0.1029,0.09442 q -0.005,-0.05848 -6.2e-4,-0.104164 0.004,-0.04625 0.0146,-0.0828 0.0116,-0.03716 0.0316,-0.06701 0.0193,-0.03062 0.0461,-0.05742 0.0944,-0.0944 0.19852,-0.08651 0.10415,0.0067 0.21619,0.118758 l 0.3989,0.3989 -0.10597,0.105969 -0.39037,-0.390373 q -0.0719,-0.07186 -0.13277,-0.07917 -0.0615,-0.0079 -0.1145,0.04506 -0.0195,0.01949 -0.032,0.04473 -0.0126,0.02393 -0.0183,0.05845 -0.006,0.0341 -0.005,0.08224 0.001,0.04747 0.008,0.113257 l 0.40561,0.405604 -0.10597,0.105968 z"
       style="font-size:1.76389px;line-height:1.25;font-family:Consolas;-inkscape-font-specification:Consolas;font-variant-ligatures:none;text-align:start;text-anchor:start;fill-opacity:0.75;stroke-width:0.264583;fill:#000000"
       id="path44810" />
    <path
       d="m 123.87342,35.351192 q 0.0226,0.02256 0.0372,0.03837 0.0146,0.01581 0.0268,0.03048 l -0.42936,0.429353 q 0.0938,0.09379 0.19672,0.09197 0.1023,-0.0025 0.20096,-0.101114 0.0268,-0.0268 0.0515,-0.05571 0.0247,-0.02892 0.0454,-0.05813 0.0214,-0.0285 0.0396,-0.05542 0.0182,-0.02809 0.0323,-0.05296 l 0.0871,0.08709 q -0.0311,0.0554 -0.0785,0.117567 -0.0463,0.06212 -0.10474,0.120587 -0.0786,0.07856 -0.15656,0.113847 -0.0779,0.03536 -0.1547,0.03166 -0.0767,-0.0049 -0.15286,-0.04568 -0.0761,-0.04199 -0.15042,-0.116312 -0.0646,-0.06456 -0.10354,-0.140078 -0.039,-0.07672 -0.0469,-0.155294 -0.008,-0.07978 0.0183,-0.157137 0.0262,-0.07736 0.0919,-0.143136 0.0639,-0.06394 0.13336,-0.0932 0.0694,-0.02925 0.1401,-0.02555 0.0707,0.0025 0.14069,0.03837 0.0701,0.03473 0.1352,0.09988 z m -0.12544,0.09503 q -0.039,-0.04264 -0.0822,-0.06638 -0.0438,-0.02434 -0.0889,-0.02803 -0.0444,-0.0042 -0.0883,0.01279 -0.0444,0.01645 -0.0846,0.05665 -0.0347,0.03471 -0.0499,0.07677 -0.0153,0.04199 -0.0116,0.08709 0.004,0.0451 0.025,0.09197 0.0213,0.04687 0.0591,0.09074 z"
       style="font-size:1.76389px;line-height:1.25;font-family:Consolas;-inkscape-font-specification:Consolas;font-variant-ligatures:none;text-align:start;text-anchor:start;fill-opacity:0.75;stroke-width:0.264583;fill:#000000"
       id="path44812" />
    <path
       d="m 123.76927,34.908434 0.0944,-0.0944 0.1029,0.09442 q -0.005,-0.05848 -6.3e-4,-0.104164 0.004,-0.04625 0.0146,-0.0828 0.0116,-0.03716 0.0316,-0.06701 0.0193,-0.03063 0.0461,-0.05742 0.0944,-0.0944 0.19851,-0.08651 0.10416,0.0067 0.2162,0.118759 l 0.3989,0.3989 -0.10597,0.105969 -0.39037,-0.390373 q -0.0719,-0.07186 -0.13277,-0.07917 -0.0615,-0.0079 -0.1145,0.04506 -0.0195,0.01949 -0.032,0.04473 -0.0126,0.02393 -0.0183,0.05845 -0.006,0.0341 -0.005,0.08224 10e-4,0.04747 0.009,0.113257 l 0.40561,0.405604 -0.10597,0.105968 z"
       style="font-size:1.76389px;line-height:1.25;font-family:Consolas;-inkscape-font-specification:Consolas;font-variant-ligatures:none;text-align:start;text-anchor:start;fill-opacity:0.75;stroke-width:0.264583;fill:#000000"
       id="path44814" />
    <path
       d="m 125.55064,34.332923 q -0.0268,0.04506 -0.0615,0.0871 -0.0341,0.04261 -0.0737,0.0822 -0.11511,0.115103 -0.22351,0.119981 -0.10903,0.0042 -0.2168,-0.103528 l -0.31913,-0.319124 -0.17113,0.171132 -0.0889,-0.08892 0.17114,-0.171133 -0.16809,-0.168086 0.0785,-0.133404 0.1955,0.195494 0.27466,-0.274665 0.0889,0.08892 -0.27467,0.274665 0.3106,0.310597 q 0.0658,0.06576 0.13338,0.06395 0.0676,-0.0031 0.13577,-0.07129 0.0292,-0.02923 0.0597,-0.06819 0.0298,-0.03966 0.0578,-0.08711 z"
       style="font-size:1.76389px;line-height:1.25;font-family:Consolas;-inkscape-font-specification:Consolas;font-variant-ligatures:none;text-align:start;text-anchor:start;fill-opacity:0.75;stroke-width:0.264583;fill:#000000"
       id="path44816" />
    <path
       d="m 126.06951,33.497351 q 0.0322,0.03224 0.0469,0.0688 0.0146,0.03656 0.0158,0.07552 6.4e-4,0.0384 -0.0103,0.07737 -0.011,0.03897 -0.0305,0.07671 -0.0189,0.03714 -0.0444,0.07129 -0.0256,0.03408 -0.0542,0.06271 -0.0621,0.06212 -0.12015,0.108838 -0.0574,0.04611 -0.11938,0.08403 l -0.0974,-0.09745 q 0.0688,-0.03839 0.1297,-0.08346 0.0609,-0.04506 0.11328,-0.09744 0.0761,-0.07613 0.0919,-0.133385 0.0158,-0.05726 -0.0225,-0.09559 -0.0165,-0.01647 -0.0353,-0.02312 -0.019,-0.0079 -0.0457,-0.0043 -0.0274,0.0031 -0.0725,0.02254 -0.0445,0.01887 -0.11629,0.05788 -0.0536,0.02925 -0.1041,0.04937 -0.0506,0.01887 -0.0974,0.02317 -0.0469,0.0043 -0.0901,-0.0097 -0.0433,-0.01402 -0.0822,-0.05298 -0.0256,-0.0256 -0.0444,-0.06757 -0.0183,-0.04265 -0.0158,-0.09744 0.002,-0.05479 0.0341,-0.120549 0.031,-0.0664 0.10412,-0.13948 0.0359,-0.03594 0.084,-0.07554 0.0474,-0.04031 0.10478,-0.07792 l 0.0944,0.0944 q -0.0621,0.03777 -0.11268,0.07733 -0.0508,0.03809 -0.0837,0.07098 -0.0396,0.03958 -0.0606,0.07335 -0.0204,0.03316 -0.0268,0.06089 -0.006,0.02683 0.001,0.04871 0.007,0.02131 0.0232,0.03779 0.0165,0.01647 0.0359,0.02376 0.0202,0.0067 0.0499,0.0024 0.0298,-0.0055 0.0737,-0.02376 0.0432,-0.0189 0.1078,-0.0542 0.07,-0.03836 0.12487,-0.05783 0.0542,-0.02011 0.0987,-0.0219 0.0444,-0.0019 0.081,0.0152 0.0372,0.01645 0.0712,0.05053 z"
       style="font-size:1.76389px;line-height:1.25;font-family:Consolas;-inkscape-font-specification:Consolas;font-variant-ligatures:none;text-align:start;text-anchor:start;fill-opacity:0.75;stroke-width:0.264583;fill:#000000"
       id="path44818" />
    <path
       d="m 123.83992,39.733041 q -0.54081,0.0207 -0.85567,-0.294159 -0.0737,-0.07369 -0.13215,-0.161383 -0.0585,-0.08892 -0.0993,-0.195494 -0.0402,-0.10719 -0.0597,-0.235079 -0.0189,-0.128503 -0.0134,-0.278931 l 0.12424,0.0012 q -0.003,0.46955 0.28076,0.753355 0.14128,0.141287 0.3313,0.211927 0.19001,0.07065 0.42266,0.06943 z"
       style="font-size:1.76389px;line-height:1.25;font-family:Consolas;-inkscape-font-specification:Consolas;font-variant-ligatures:none;text-align:start;text-anchor:start;fill-opacity:0.75;stroke-width:0.264583;fill:#000000"
       id="path44820" />
    <path
       d="m 124.45502,38.606363 -0.14068,0.140682 -0.3983,-0.06821 0.07,0.396469 -0.13703,0.137028 -0.07,-0.543847 -0.53046,-0.07856 0.13582,-0.135811 0.39585,0.0743 -0.0773,-0.392812 0.13094,-0.130938 0.0773,0.536539 z"
       style="font-size:1.76389px;line-height:1.25;font-family:Consolas;-inkscape-font-specification:Consolas;font-variant-ligatures:none;text-align:start;text-anchor:start;fill-opacity:0.75;stroke-width:0.264583;fill:#000000"
       id="path44822" />
    <path
       d="m 124.83139,37.72086 q 0.059,0.05904 0.0822,0.133368 0.0231,0.07429 0.0134,0.154693 -0.01,0.07917 -0.0511,0.159594 -0.0414,0.08042 -0.11203,0.151063 -0.0177,0.01766 -0.0398,0.03695 -0.0207,0.01949 -0.0423,0.03807 -0.0215,0.01868 -0.0424,0.03676 -0.021,0.01676 -0.0383,0.02986 l -0.0962,-0.09622 q 0.0408,-0.02497 0.0865,-0.06331 0.0462,-0.0391 0.0894,-0.08234 0.0487,-0.04872 0.0761,-0.09929 0.0274,-0.05057 0.0335,-0.09926 0.005,-0.04933 -0.0104,-0.09442 -0.0164,-0.04566 -0.0548,-0.08405 -0.0743,-0.07429 -0.16139,-0.0542 -0.0871,0.0189 -0.18694,0.118779 l -0.15104,0.151036 -0.40682,-0.406827 0.42874,-0.428746 0.0926,0.09257 -0.32888,0.328879 0.22351,0.22351 0.0694,-0.06943 q 0.0573,-0.05725 0.12177,-0.101126 0.0645,-0.04387 0.13278,-0.05967 0.0682,-0.01703 0.13765,0.0012 0.0695,0.01708 0.1352,0.08282 z"
       style="font-size:1.76389px;line-height:1.25;font-family:Consolas;-inkscape-font-specification:Consolas;font-variant-ligatures:none;text-align:start;text-anchor:start;fill-opacity:0.75;stroke-width:0.264583;fill:#000000"
       id="path44824" />
    <path
       d="m 124.49339,36.754353 q 0.5408,-0.0207 0.85931,0.297807 0.0658,0.06576 0.12303,0.149822 0.0572,0.08404 0.0993,0.190614 0.0414,0.105975 0.0627,0.236912 0.0219,0.130319 0.0158,0.289889 l -0.12423,-0.0012 q 10e-4,-0.236292 -0.0682,-0.422652 -0.0694,-0.186358 -0.20951,-0.326429 -0.28989,-0.289893 -0.757,-0.285627 z"
       style="font-size:1.76389px;line-height:1.25;font-family:Consolas;-inkscape-font-specification:Consolas;font-variant-ligatures:none;text-align:start;text-anchor:start;fill-opacity:0.75;stroke-width:0.264583;fill:#000000"
       id="path44826" />
    <path
       d="m 141.21365,38.329869 q -0.10111,0.06576 -0.1614,0.12605 -0.14312,0.143118 0.007,0.292932 l 0.10719,0.107191 0.26797,-0.267966 0.0883,0.0883 -0.26796,0.267966 0.43422,0.434227 -0.10779,0.107796 -0.43423,-0.434227 -0.19671,0.19671 -0.0883,-0.0883 0.19671,-0.196711 -0.10111,-0.101102 q -0.24421,-0.244213 0.0104,-0.498781 0.0633,-0.06334 0.15471,-0.125436 z m -0.48965,0.790495 z"
       style="font-size:1.76389px;line-height:1.25;font-family:Consolas;-inkscape-font-specification:Consolas;font-variant-ligatures:none;text-align:start;text-anchor:start;fill-opacity:0.75;stroke-width:0.264583;fill:#000000"
       id="path44847" />
    <path
       d="m 141.53216,38.312204 0.0968,-0.09683 0.11571,0.10963 q -0.011,-0.119395 0.0122,-0.200976 0.0238,-0.08219 0.0774,-0.135781 0.095,-0.09501 0.20524,-0.08221 0.11085,0.01219 0.22838,0.13703 l -0.10719,0.107186 q -0.0785,-0.08223 -0.14008,-0.09257 -0.0615,-0.01159 -0.11024,0.03713 -0.0213,0.02131 -0.0353,0.05116 -0.014,0.0286 -0.0201,0.06878 -0.006,0.03901 -0.005,0.09075 5.9e-4,0.05174 0.009,0.118164 l 0.39281,0.392812 -0.10718,0.107186 z"
       style="font-size:1.76389px;line-height:1.25;font-family:Consolas;-inkscape-font-specification:Consolas;font-variant-ligatures:none;text-align:start;text-anchor:start;fill-opacity:0.75;stroke-width:0.264583;fill:#000000"
       id="path44849" />
    <path
       d="m 143.1972,37.870061 -0.0846,-0.07981 q -5.8e-4,0.0993 -0.0305,0.17296 -0.0292,0.07308 -0.0859,0.129716 -0.0524,0.05238 -0.10289,0.07616 -0.0505,0.02379 -0.0981,0.02495 -0.0475,-7e-6 -0.0908,-0.02012 -0.0426,-0.02072 -0.0798,-0.05784 -0.092,-0.09196 -0.0755,-0.211934 0.0164,-0.121212 0.15041,-0.255198 l 0.12667,-0.126674 -0.0536,-0.0536 q -0.0542,-0.05423 -0.1212,-0.05177 -0.0676,0.0018 -0.13884,0.07309 -0.0518,0.05177 -0.0907,0.113911 -0.0383,0.06154 -0.0707,0.136413 l -0.0956,-0.09561 q 0.0128,-0.02738 0.0305,-0.05846 0.0177,-0.03225 0.0396,-0.06517 0.0217,-0.03307 0.0487,-0.0658 0.0263,-0.03337 0.0568,-0.06383 0.0554,-0.05542 0.11204,-0.08772 0.0566,-0.03229 0.11204,-0.03779 0.056,-0.0061 0.11022,0.01522 0.0542,0.02132 0.10536,0.07248 l 0.42143,0.421436 z m -0.28989,-0.266742 -0.13459,0.134588 q -0.0396,0.03958 -0.0603,0.07613 -0.0207,0.03654 -0.0243,0.06945 -0.004,0.03291 0.008,0.06269 0.0116,0.02861 0.0372,0.05421 0.0177,0.01768 0.0396,0.02857 0.0214,0.01032 0.0463,0.01098 0.0243,-2.2e-5 0.0512,-0.01216 0.0268,-0.0122 0.0548,-0.04022 0.0365,-0.03654 0.0615,-0.105355 0.0249,-0.07006 0.0292,-0.170518 z"
       style="font-size:1.76389px;line-height:1.25;font-family:Consolas;-inkscape-font-specification:Consolas;font-variant-ligatures:none;text-align:start;text-anchor:start;fill-opacity:0.75;stroke-width:0.264583;fill:#000000"
       id="path44851" />
    <path
       d="m 143.94263,37.07956 q -0.0256,0.05725 -0.0621,0.108385 -0.0353,0.05116 -0.0816,0.09744 -0.14495,0.144945 -0.30208,0.144941 -0.15651,-6.06e-4 -0.30755,-0.151644 -0.0725,-0.07247 -0.10901,-0.154078 -0.0366,-0.08165 -0.0378,-0.164431 -10e-4,-0.0828 0.0329,-0.162001 0.0335,-0.07976 0.10172,-0.14797 0.0475,-0.0475 0.0953,-0.08255 0.0478,-0.03505 0.1011,-0.05725 l 0.10109,0.101095 q -0.0603,0.01887 -0.11084,0.05116 -0.0506,0.03105 -0.0944,0.07489 -0.0408,0.0408 -0.0615,0.09318 -0.0207,0.05114 -0.0188,0.107812 0.002,0.05661 0.028,0.114495 0.0262,0.05783 0.0792,0.110839 0.11084,0.110839 0.21984,0.112663 0.109,6.01e-4 0.20462,-0.09502 0.0432,-0.04324 0.0737,-0.09319 0.0311,-0.05056 0.0494,-0.107766 z"
       style="font-size:1.76389px;line-height:1.25;font-family:Consolas;-inkscape-font-specification:Consolas;font-variant-ligatures:none;text-align:start;text-anchor:start;fill-opacity:0.75;stroke-width:0.264583;fill:#000000"
       id="path44853" />
    <path
       d="m 144.66005,36.390158 q -0.0268,0.04506 -0.0615,0.0871 -0.0341,0.04261 -0.0737,0.0822 -0.11511,0.115103 -0.2235,0.119981 -0.10904,0.0042 -0.21682,-0.103535 l -0.31911,-0.319117 -0.17114,0.171132 -0.0889,-0.08892 0.17113,-0.171132 -0.16809,-0.168087 0.0785,-0.133404 0.1955,0.195494 0.27466,-0.274665 0.0889,0.08892 -0.27466,0.274665 0.31059,0.310596 q 0.0658,0.06576 0.13337,0.06394 0.0676,-0.003 0.13585,-0.07122 0.0292,-0.02923 0.0597,-0.06819 0.0298,-0.03966 0.0578,-0.08711 z"
       style="font-size:1.76389px;line-height:1.25;font-family:Consolas;-inkscape-font-specification:Consolas;font-variant-ligatures:none;text-align:start;text-anchor:start;fill-opacity:0.75;stroke-width:0.264583;fill:#000000"
       id="path44855" />
    <path
       d="m 144.54616,35.473592 -0.18087,0.180877 -0.0877,-0.08769 0.28806,-0.288063 0.52314,0.523138 0.1821,-0.182094 0.0883,0.08831 -0.49026,0.490256 -0.0883,-0.08831 0.20098,-0.200975 z m -0.30694,-0.381244 q 0.0177,-0.01766 0.0393,-0.02652 0.0216,-0.0089 0.0439,-0.0085 0.0232,2.9e-5 0.0445,0.0091 0.0213,0.0079 0.039,0.0256 0.017,0.01704 0.0255,0.03896 0.009,0.02128 0.009,0.04446 6.4e-4,0.02256 -0.008,0.04443 -0.009,0.02159 -0.0265,0.03925 -0.0177,0.01766 -0.0392,0.02652 -0.0216,0.0089 -0.045,0.0086 -0.0226,-6.36e-4 -0.0445,-0.0091 -0.0213,-0.0091 -0.0383,-0.02616 -0.0177,-0.01768 -0.0262,-0.0384 -0.008,-0.02192 -0.009,-0.04446 -3e-5,-0.02316 0.009,-0.04448 0.009,-0.02159 0.0265,-0.03925 z"
       style="font-size:1.76389px;line-height:1.25;font-family:Consolas;-inkscape-font-specification:Consolas;font-variant-ligatures:none;text-align:start;text-anchor:start;fill-opacity:0.75;stroke-width:0.264583;fill:#000000"
       id="path44857" />
    <path
       d="m 145.76906,34.677007 q 0.0713,0.07125 0.11084,0.151031 0.039,0.07921 0.0439,0.159565 0.004,0.07976 -0.0262,0.157722 -0.0311,0.07732 -0.0999,0.146143 -0.0658,0.06577 -0.13823,0.09807 -0.0725,0.03105 -0.14862,0.02799 -0.0755,-0.0037 -0.15347,-0.04263 -0.0774,-0.0396 -0.15348,-0.115711 -0.0712,-0.07125 -0.10962,-0.149814 -0.039,-0.07921 -0.0432,-0.158958 -0.005,-0.0804 0.0262,-0.157722 0.0304,-0.07796 0.0993,-0.146779 0.0658,-0.06578 0.13826,-0.09682 0.0725,-0.03229 0.14798,-0.02863 0.0755,0.0024 0.15286,0.04202 0.078,0.03899 0.15347,0.114495 z m -0.10345,0.113353 q -0.0566,-0.05664 -0.11145,-0.08587 -0.0548,-0.03046 -0.10596,-0.03532 -0.0518,-0.0055 -0.0993,0.014 -0.0475,0.01825 -0.0883,0.05905 -0.0475,0.0475 -0.0627,0.100488 -0.0152,0.05174 -0.006,0.104779 0.01,0.05235 0.0408,0.104142 0.0311,0.05054 0.0761,0.09562 0.0566,0.05664 0.11145,0.08709 0.0554,0.02985 0.10719,0.03532 0.0511,0.0049 0.0987,-0.01339 0.0469,-0.01889 0.0883,-0.0603 0.0475,-0.0475 0.0628,-0.09924 0.0152,-0.05298 0.006,-0.105345 -0.009,-0.05297 -0.0402,-0.103534 -0.0311,-0.05179 -0.0767,-0.09744 z"
       style="font-size:1.76389px;line-height:1.25;font-family:Consolas;-inkscape-font-specification:Consolas;font-variant-ligatures:none;text-align:start;text-anchor:start;fill-opacity:0.75;stroke-width:0.264583;fill:#000000"
       id="path44859" />
    <path
       d="m 145.62168,34.222683 0.0944,-0.0944 0.1029,0.09442 q -0.005,-0.05848 -6.2e-4,-0.104164 0.004,-0.04625 0.0146,-0.0828 0.0116,-0.03716 0.0317,-0.06701 0.0193,-0.03063 0.0461,-0.05742 0.0944,-0.0944 0.19851,-0.08651 0.10416,0.0067 0.21621,0.118765 l 0.3989,0.3989 -0.10597,0.105969 -0.39038,-0.39038 q -0.0719,-0.07186 -0.13276,-0.07917 -0.0615,-0.0079 -0.1145,0.04506 -0.0195,0.01949 -0.032,0.04473 -0.0126,0.02393 -0.0183,0.05845 -0.006,0.0341 -0.005,0.08224 0.001,0.04754 0.009,0.113257 l 0.4056,0.405604 -0.10596,0.105968 z"
       style="font-size:1.76389px;line-height:1.25;font-family:Consolas;-inkscape-font-specification:Consolas;font-variant-ligatures:none;text-align:start;text-anchor:start;fill-opacity:0.75;stroke-width:0.264583;fill:#000000"
       id="path44861" />
    <path
       d="m 147.23618,33.497347 q 0.0322,0.03224 0.0469,0.0688 0.0146,0.03656 0.0158,0.07552 6.3e-4,0.0384 -0.0103,0.07736 -0.011,0.03897 -0.0305,0.07671 -0.0189,0.03714 -0.0445,0.07122 -0.0256,0.03408 -0.0542,0.06271 -0.0621,0.06212 -0.12015,0.108838 -0.0574,0.04611 -0.11938,0.08403 l -0.0974,-0.09744 q 0.0688,-0.03839 0.1297,-0.08346 0.0609,-0.04506 0.11328,-0.09744 0.0761,-0.07613 0.0919,-0.133386 0.0158,-0.05726 -0.0225,-0.09559 -0.0165,-0.01647 -0.0353,-0.02312 -0.0189,-0.0079 -0.0457,-0.0043 -0.0274,0.0031 -0.0725,0.02254 -0.0445,0.01887 -0.11629,0.05789 -0.0536,0.02925 -0.10417,0.0493 -0.0506,0.01887 -0.0974,0.02317 -0.0469,0.0043 -0.0901,-0.0097 -0.0433,-0.01402 -0.0822,-0.05298 -0.0256,-0.0256 -0.0444,-0.06757 -0.0183,-0.04266 -0.0158,-0.09745 0.002,-0.05479 0.0341,-0.120549 0.031,-0.0664 0.10412,-0.13948 0.0359,-0.03594 0.084,-0.07554 0.0474,-0.04031 0.10471,-0.07799 l 0.0944,0.0944 q -0.0621,0.03777 -0.11268,0.07733 -0.0508,0.03809 -0.0837,0.07098 -0.0396,0.03958 -0.0606,0.07335 -0.0204,0.03316 -0.0268,0.06089 -0.006,0.02676 0.001,0.04871 0.007,0.0213 0.0232,0.03778 0.0164,0.01641 0.0359,0.02376 0.0202,0.0067 0.0499,0.0024 0.0298,-0.0055 0.0737,-0.02376 0.0432,-0.0189 0.1078,-0.0542 0.07,-0.03836 0.12487,-0.05783 0.0542,-0.02011 0.0987,-0.0219 0.0444,-0.0019 0.081,0.0152 0.0371,0.01645 0.0712,0.05053 z"
       style="font-size:1.76389px;line-height:1.25;font-family:Consolas;-inkscape-font-specification:Consolas;font-variant-ligatures:none;text-align:start;text-anchor:start;fill-opacity:0.75;stroke-width:0.264583;fill:#000000"
       id="path44863" />
    <path
       d="m 145.00658,39.73303 q -0.5408,0.02071 -0.85566,-0.294151 -0.0737,-0.07369 -0.13216,-0.16139 -0.0585,-0.08891 -0.0993,-0.195494 -0.0402,-0.107183 -0.0597,-0.235073 -0.0189,-0.12851 -0.0134,-0.278931 l 0.12423,0.0012 q -0.003,0.46955 0.28076,0.753348 0.14129,0.141294 0.3313,0.211934 0.19002,0.07064 0.42266,0.06943 z"
       style="font-size:1.76389px;line-height:1.25;font-family:Consolas;-inkscape-font-specification:Consolas;font-variant-ligatures:none;text-align:start;text-anchor:start;fill-opacity:0.75;stroke-width:0.264583;fill:#000000"
       id="path44865" />
    <path
       d="m 145.62169,38.60636 -0.14069,0.140682 -0.39829,-0.06821 0.07,0.396469 -0.13703,0.137028 -0.07,-0.543854 -0.53045,-0.07856 0.13581,-0.135809 0.39586,0.0743 -0.0773,-0.392812 0.13094,-0.130937 0.0773,0.536539 z"
       style="font-size:1.76389px;line-height:1.25;font-family:Consolas;-inkscape-font-specification:Consolas;font-variant-ligatures:none;text-align:start;text-anchor:start;fill-opacity:0.75;stroke-width:0.264583;fill:#000000"
       id="path44867" />
    <path
       d="m 146.26602,37.962025 -0.5,0.499999 -0.0987,-0.09866 0.20463,-0.204628 -0.581,-0.581001 -0.0871,0.294156 -0.12911,-0.05116 0.11997,-0.386723 0.0938,-0.09379 0.70098,0.700976 0.17783,-0.177832 z"
       style="font-size:1.76389px;line-height:1.25;font-family:Consolas;-inkscape-font-specification:Consolas;font-variant-ligatures:none;text-align:start;text-anchor:start;fill-opacity:0.75;stroke-width:0.264583;fill:#000000"
       id="path44869" />
    <path
       d="m 146.57905,36.853615 q 0.0914,0.09136 0.1486,0.185142 0.0566,0.09318 0.0737,0.184533 0.0164,0.09075 -0.009,0.176009 -0.0256,0.08401 -0.0999,0.158314 -0.0639,0.06394 -0.14009,0.09256 -0.0767,0.02805 -0.16382,0.01522 -0.0871,-0.01277 -0.18453,-0.07003 -0.0974,-0.05725 -0.20341,-0.163221 -0.0914,-0.09135 -0.14859,-0.185135 -0.0566,-0.0944 -0.0737,-0.184533 -0.0171,-0.09139 0.009,-0.176009 0.0256,-0.08526 0.0993,-0.158951 0.0639,-0.06394 0.14065,-0.092 0.0761,-0.02862 0.16382,-0.01523 0.0871,0.01277 0.18453,0.07004 0.0974,0.05725 0.20341,0.163214 z m -0.10365,0.110722 q -0.0207,-0.02072 -0.0426,-0.03896 -0.0219,-0.01952 -0.0432,-0.03712 l -0.0865,0.587092 q 0.0408,0.02254 0.0816,0.03533 0.0408,0.01279 0.0798,0.01282 0.039,-0.0012 0.0749,-0.01522 0.0359,-0.01525 0.0682,-0.04753 0.0414,-0.04142 0.0548,-0.09499 0.014,-0.05419 -0.002,-0.117536 -0.0159,-0.06335 -0.0615,-0.13459 -0.0463,-0.07191 -0.12363,-0.149214 z m -0.37148,0.356907 q 0.0189,0.01888 0.0378,0.03776 0.0195,0.01827 0.039,0.03415 l 0.0877,-0.585869 q -0.0402,-0.02191 -0.0798,-0.0335 -0.0396,-0.01159 -0.0773,-0.01035 -0.0384,6.08e-4 -0.0737,0.01525 -0.0353,0.01465 -0.0664,0.04571 -0.0414,0.04141 -0.0554,0.0956 -0.0134,0.05358 0.003,0.117564 0.0159,0.06335 0.0621,0.135199 0.0457,0.07127 0.12302,0.148605 z"
       style="font-size:1.76389px;line-height:1.25;font-family:Consolas;-inkscape-font-specification:Consolas;font-variant-ligatures:none;text-align:start;text-anchor:start;fill-opacity:0.75;stroke-width:0.264583;fill:#000000"
       id="path44871" />
    <path
       d="m 146.3458,36.068601 q 0.5408,-0.02071 0.85932,0.297807 0.0658,0.06576 0.12302,0.149822 0.0572,0.08404 0.0993,0.190615 0.0414,0.105967 0.0627,0.236904 0.0219,0.130327 0.0158,0.28989 l -0.12423,-0.0012 q 0.001,-0.236301 -0.0682,-0.422653 -0.0694,-0.186358 -0.2095,-0.326429 -0.28989,-0.289892 -0.757,-0.285626 z"
       style="font-size:1.76389px;line-height:1.25;font-family:Consolas;-inkscape-font-specification:Consolas;font-variant-ligatures:none;text-align:start;text-anchor:start;fill-opacity:0.75;stroke-width:0.264583;fill:#000000"
       id="path44873" />
    <path
       style="fill:#000000;fill-opacity:0.3;stroke:#808080;stroke-width:0.264999;stroke-opacity:1;stop-color:#000000"
       d="m 93.90002,27.118057 h 17.23704"
       id="path43473" />
    <path
       style="fill:#000000;fill-opacity:0.3;stroke:#808080;stroke-width:0.264999;stroke-opacity:1;stop-color:#000000"
       d="M 128.82504,27.118057 H 172.8"
       id="path43609" />
  </g>
</svg>
